<?xml version="1.0" standalone="no"?>
<!DOCTYPE svg PUBLIC "-//W3C//DTD SVG 20010904//EN"
 "http://www.w3.org/TR/2001/REC-SVG-20010904/DTD/svg10.dtd">
<svg version="1.0" xmlns="http://www.w3.org/2000/svg"
 width="1152.000000pt" height="648.000000pt" viewBox="0 0 1152.000000 648.000000"
 preserveAspectRatio="xMidYMid meet">

<g transform="translate(0.000000,648.000000) scale(0.100000,-0.100000)"
fill="#000000" stroke="none">
<path d="M0 3240 l0 -3240 5760 0 5760 0 0 3240 0 3240 -5760 0 -5760 0 0
-3240z m8808 2623 c2 -9 32 -13 103 -13 59 0 99 -4 99 -10 0 -6 28 -10 65 -10
37 0 65 -4 65 -10 0 -5 16 -10 35 -10 19 0 35 -4 35 -10 0 -5 23 -10 50 -10
28 0 50 -4 50 -10 0 -5 18 -10 40 -10 22 0 40 -4 40 -10 0 -5 11 -10 25 -10
14 0 25 -4 25 -10 0 -5 16 -10 35 -10 19 0 35 -4 35 -10 0 -5 11 -10 25 -10
14 0 25 -4 25 -10 0 -5 11 -10 25 -10 14 0 25 -4 25 -10 0 -5 11 -10 25 -10
14 0 25 -4 25 -9 0 -5 23 -12 50 -16 28 -4 50 -11 50 -16 0 -5 11 -9 25 -9 14
0 25 -4 25 -10 0 -5 7 -10 15 -10 8 0 15 -4 15 -10 0 -5 10 -10 23 -10 12 0
29 -9 37 -20 8 -11 25 -20 37 -20 13 0 23 -4 23 -10 0 -5 6 -10 13 -10 7 0 19
-9 27 -20 8 -11 25 -20 37 -20 13 0 23 -4 23 -10 0 -5 6 -10 13 -10 7 0 19 -9
27 -20 8 -11 20 -20 27 -20 7 0 13 -4 13 -9 0 -5 10 -13 23 -17 12 -4 29 -15
38 -25 9 -11 20 -19 25 -19 5 0 16 -9 24 -20 8 -11 18 -20 23 -20 14 0 37 -27
37 -44 0 -9 5 -16 11 -16 16 0 39 -26 39 -44 0 -9 7 -16 15 -16 8 0 15 -4 15
-10 0 -5 11 -12 25 -16 14 -3 25 -13 25 -21 0 -17 24 -43 39 -43 6 0 11 -9 11
-20 0 -11 5 -20 10 -20 6 0 10 -9 10 -20 0 -11 7 -20 15 -20 8 0 15 -9 15 -20
0 -11 5 -20 10 -20 6 0 10 -9 10 -20 0 -11 7 -20 15 -20 8 0 15 -7 15 -15 0
-8 5 -15 10 -15 6 0 10 -13 10 -30 0 -20 5 -30 15 -30 8 0 15 -9 15 -20 0 -11
5 -20 10 -20 6 0 10 -18 10 -40 0 -29 4 -40 15 -40 8 0 15 -9 15 -20 0 -11 5
-20 10 -20 6 0 10 -20 10 -45 0 -33 4 -45 15 -45 11 0 15 -11 15 -40 0 -22 5
-40 10 -40 6 0 10 -35 10 -85 0 -69 3 -85 15 -85 13 0 15 -30 15 -210 0 -180
-2 -210 -15 -210 -12 0 -15 -17 -15 -90 0 -53 -4 -90 -10 -90 -5 0 -10 -11
-10 -25 0 -16 -6 -25 -15 -25 -11 0 -15 -12 -15 -50 0 -27 -4 -50 -10 -50 -5
0 -10 -13 -10 -30 0 -20 -5 -30 -15 -30 -10 0 -15 -10 -15 -30 0 -16 -4 -30
-10 -30 -5 0 -10 -11 -10 -25 0 -16 -6 -25 -15 -25 -8 0 -15 -9 -15 -20 0 -11
-4 -20 -10 -20 -5 0 -10 -9 -10 -20 0 -11 -7 -20 -15 -20 -8 0 -15 -9 -15 -20
0 -11 -4 -20 -10 -20 -5 0 -10 -9 -10 -20 0 -11 -7 -20 -15 -20 -8 0 -15 -7
-15 -15 0 -8 -4 -15 -10 -15 -5 0 -10 -9 -10 -20 0 -11 -5 -20 -11 -20 -16 0
-39 -26 -39 -44 0 -9 -7 -16 -15 -16 -8 0 -15 -7 -15 -16 0 -17 -23 -44 -37
-44 -5 0 -15 -9 -23 -20 -8 -11 -18 -20 -23 -20 -12 0 -37 -27 -37 -39 0 -6
-6 -11 -13 -11 -7 0 -19 -9 -27 -20 -8 -11 -19 -20 -25 -20 -6 0 -17 -9 -25
-20 -8 -11 -19 -20 -25 -20 -6 0 -17 -9 -25 -20 -8 -11 -19 -20 -25 -20 -6 0
-17 -9 -25 -20 -8 -11 -25 -20 -37 -20 -13 0 -23 -4 -23 -10 0 -5 -6 -10 -13
-10 -7 0 -19 -9 -27 -20 -8 -11 -20 -20 -27 -20 -7 0 -13 -4 -13 -10 0 -5 -11
-10 -24 -10 -14 0 -31 -7 -40 -15 -8 -8 -24 -15 -35 -15 -12 0 -21 -4 -21 -10
0 -5 -11 -10 -25 -10 -14 0 -25 -4 -25 -10 0 -5 -7 -10 -15 -10 -8 0 -15 -4
-15 -10 0 -5 -11 -10 -25 -10 -14 0 -25 -4 -25 -10 0 -5 -11 -10 -25 -10 -14
0 -25 -4 -25 -10 0 -5 -11 -10 -25 -10 -14 0 -25 -4 -25 -10 0 -5 -11 -10 -25
-10 -14 0 -25 -4 -25 -10 0 -5 -11 -10 -25 -10 -14 0 -25 -4 -25 -10 0 -5 -16
-10 -35 -10 -19 0 -35 -4 -35 -10 0 -5 -11 -10 -25 -10 -14 0 -25 -4 -25 -9 0
-5 -40 -13 -90 -17 -49 -3 -90 -10 -90 -15 0 -5 -16 -9 -35 -9 -19 0 -35 -4
-35 -10 0 -6 -32 -10 -75 -10 -43 0 -75 -4 -75 -10 0 -6 -32 -10 -75 -10 -43
0 -75 -4 -75 -10 0 -6 -40 -10 -100 -10 -60 0 -100 -4 -100 -10 0 -7 -322 -10
-946 -10 -806 0 -948 -2 -960 -14 -12 -12 -14 -155 -14 -970 l0 -956 -775 0
-775 0 0 2705 0 2706 1817 -3 c1442 -2 1817 -6 1821 -15z"/>
<path d="M6733 4945 c-10 -11 -13 -186 -13 -800 0 -668 2 -789 14 -801 12 -12
114 -14 660 -14 424 0 646 3 646 10 0 6 57 10 150 10 93 0 150 4 150 10 0 6
32 10 75 10 43 0 75 4 75 10 0 6 23 10 50 10 28 0 50 5 50 10 0 6 23 10 50 10
28 0 50 5 50 10 0 6 11 10 25 10 14 0 25 5 25 10 0 6 11 10 25 10 14 0 25 4
25 9 0 5 23 12 50 16 28 4 50 11 50 16 0 5 10 9 23 9 12 0 29 9 37 20 8 11 19
20 25 20 6 0 17 9 25 20 8 11 19 20 25 20 6 0 17 9 25 20 8 11 20 20 27 20 7
0 13 7 13 16 0 18 23 44 39 44 6 0 11 9 11 20 0 11 5 20 10 20 6 0 10 7 10 15
0 8 7 15 15 15 8 0 15 9 15 20 0 11 5 20 10 20 6 0 10 9 10 20 0 11 7 20 15
20 11 0 15 11 15 40 0 22 5 40 10 40 6 0 10 42 10 105 0 87 3 105 15 105 11 0
15 11 15 40 0 29 -4 40 -15 40 -12 0 -15 16 -15 85 0 50 -4 85 -10 85 -5 0
-10 16 -10 35 0 24 -5 35 -15 35 -10 0 -15 10 -15 30 0 17 -4 30 -10 30 -5 0
-10 14 -10 30 0 20 -5 30 -15 30 -8 0 -15 7 -15 16 0 18 -23 44 -39 44 -6 0
-11 7 -11 16 0 20 -20 39 -48 48 -12 4 -22 12 -22 17 0 5 -6 9 -13 9 -7 0 -19
9 -27 20 -8 11 -20 20 -27 20 -7 0 -13 5 -13 10 0 6 -10 10 -23 10 -12 0 -29
9 -37 20 -8 11 -25 20 -37 20 -13 0 -23 5 -23 10 0 6 -7 10 -15 10 -8 0 -15 5
-15 10 0 6 -11 10 -25 10 -14 0 -25 5 -25 10 0 6 -16 10 -35 10 -19 0 -35 5
-35 10 0 6 -18 10 -40 10 -22 0 -40 4 -40 9 0 4 -37 11 -82 15 -46 4 -84 11
-86 16 -2 6 -58 10 -128 10 -76 0 -124 4 -124 10 0 7 -247 10 -722 10 -612 -1
-725 -3 -735 -15z"/>
</g>
</svg>
